<?xml version="1.0" encoding="UTF-8"?>
<svg xmlns="http://www.w3.org/2000/svg" xmlns:xlink="http://www.w3.org/1999/xlink" width="8pt" height="8pt" viewBox="0 0 8 8" version="1.1">
<g id="surface1">
<path style=" stroke:none;fill-rule:nonzero;fill:rgb(0%,0%,0%);fill-opacity:1;" d="M 4 0 C 1.792969 0 0 1.792969 0 4 C 0 6.207031 1.792969 8 4 8 C 6.207031 8 8 6.207031 8 4 C 8 1.792969 6.207031 0 4 0 Z M 4 7.691406 C 1.964844 7.691406 0.308594 6.035156 0.308594 4 C 0.308594 1.964844 1.964844 0.308594 4 0.308594 C 6.035156 0.308594 7.691406 1.964844 7.691406 4 C 7.691406 6.035156 6.035156 7.691406 4 7.691406 Z M 4 7.691406 "/>
<path style=" stroke:none;fill-rule:nonzero;fill:rgb(0%,0%,0%);fill-opacity:1;" d="M 5.886719 2.359375 L 3.519531 5.019531 L 2.097656 3.878906 C 2.03125 3.828125 1.933594 3.835938 1.878906 3.902344 C 1.828125 3.96875 1.835938 4.066406 1.902344 4.121094 L 3.441406 5.351562 C 3.46875 5.375 3.503906 5.382812 3.539062 5.382812 C 3.582031 5.382812 3.625 5.367188 3.652344 5.332031 L 6.113281 2.5625 C 6.171875 2.5 6.164062 2.402344 6.101562 2.347656 C 6.039062 2.289062 5.941406 2.296875 5.886719 2.359375 Z M 5.886719 2.359375 "/>
</g>
</svg>
